<svg xmlns="http://www.w3.org/2000/svg" direction="ltr" width="3665" height="1192.7856579984236" viewBox="23254 8661 3665 1192.7856579984236" stroke-linecap="round" stroke-linejoin="round" data-color-mode="light" class="tl-container tl-theme__force-sRGB tl-theme__light" style="background-color: transparent;"><defs/><g transform="matrix(1, 0, 0, 1, 23254, 8661)" opacity="1"><g data-lovart-layer-name="Image 1_SVG"><g transform="scale(1.4440504334121356, 1.4440504334121358)"><g>
<path xmlns="http://www.w3.org/2000/svg" fill="#d9fb9e" d="M 166.73 120.12   L 2347.47 120.24   A 0.43 0.42 -90.0 0 1 2347.89 120.67   L 2348.03 174.67   L 2347.70 178.65   A 0.56 0.55 -87.1 0 1 2347.15 179.15   L 2321.33 179.35   L 166.13 179.11   A 0.41 0.40 90.0 0 1 165.73 178.70   L 165.48 127.07   Q 165.52 123.69 165.80 120.40   Q 165.84 119.97 166.73 120.12   Z"/>
<path xmlns="http://www.w3.org/2000/svg" fill="#d9fb9e" d="M 1737.28 599.97   L 1733.89 573.96   L 1731.74 556.57   A 0.70 0.68 4.4 0 0 1731.22 555.98   Q 1711.05 551.04 1693.34 540.00   A 1.01 1.00 39.2 0 0 1692.12 540.12   Q 1679.85 551.89 1666.42 564.18   Q 1664.17 566.24 1656.58 572.12   Q 1652.67 569.03 1648.18 564.82   Q 1627.28 545.28 1607.84 524.73   A 0.83 0.82 41.4 0 1 1607.77 523.68   Q 1622.17 503.71 1638.38 485.01   A 0.68 0.67 53.9 0 0 1638.49 484.27   L 1628.99 463.66   L 1623.10 447.29   A 0.85 0.84 -5.3 0 0 1622.44 446.75   L 1573.47 438.82   L 1573.36 374.50   A 0.64 0.63 84.6 0 1 1573.87 373.87   Q 1597.24 369.17 1621.05 366.57   A 0.82 0.80 -82.1 0 0 1621.72 366.05   L 1624.84 357.54   Q 1630.80 342.81 1638.15 328.72   A 0.58 0.57 -50.6 0 0 1638.09 328.10   L 1621.27 306.79   L 1608.41 289.37   A 0.69 0.69 0.0 0 1 1608.49 288.46   C 1611.89 285.20 1613.95 281.72 1617.40 278.66   C 1622.28 274.32 1627.89 267.36 1633.57 261.82   Q 1644.74 250.90 1655.63 240.82   Q 1657.46 242.30 1658.42 243.28   A 3.65 0.20 38.8 0 0 1659.79 244.51   L 1693.65 273.14   A 0.83 0.81 53.8 0 0 1694.48 273.28   Q 1696.67 272.41 1701.80 269.53   Q 1713.49 262.98 1731.19 256.91   A 0.75 0.74 84.0 0 0 1731.69 256.28   Q 1734.48 231.82 1739.59 207.02   A 0.54 0.54 0.0 0 1 1740.12 206.59   L 1805.81 206.59   A 0.56 0.56 0.0 0 1 1806.37 207.08   L 1812.54 256.08   A 0.86 0.85 4.1 0 0 1813.17 256.80   Q 1833.71 262.59 1850.32 273.18   A 1.46 1.46 0.0 0 0 1852.03 273.08   L 1891.50 240.88   A 0.48 0.48 0.0 0 1 1892.18 240.96   Q 1895.77 245.81 1896.83 246.66   C 1900.03 249.22 1903.21 252.79 1905.44 255.00   Q 1925.45 274.87 1939.22 289.02   A 1.07 1.07 0.0 0 1 1939.27 290.45   L 1907.19 328.87   A 0.76 0.76 0.0 0 0 1907.10 329.69   Q 1916.07 347.21 1920.94 365.54   A 0.52 0.50 86.2 0 0 1921.35 365.91   L 1971.08 373.77   A 0.62 0.61 -85.7 0 1 1971.60 374.38   L 1971.94 438.98   A 0.54 0.54 0.0 0 1 1971.49 439.52   L 1921.99 447.67   A 0.79 0.79 0.0 0 0 1921.35 448.25   Q 1916.06 467.82 1906.44 484.12   A 0.53 0.52 39.8 0 0 1906.50 484.74   Q 1919.52 499.12 1932.97 516.03   Q 1937.76 522.06 1939.15 524.43   A 0.64 0.64 0.0 0 1 1939.01 525.24   C 1935.85 527.96 1932.05 532.75 1928.20 536.48   Q 1918.26 546.13 1900.80 562.82   C 1897.53 565.95 1894.47 568.31 1890.84 571.65   A 0.93 0.92 -50.0 0 1 1889.73 571.75   Q 1884.41 568.47 1878.67 563.62   Q 1867.56 554.27 1859.91 547.63   Q 1854.07 542.55 1852.00 540.90   A 0.93 0.92 -41.5 0 0 1850.93 540.84   Q 1833.15 552.23 1812.75 556.65   A 1.14 1.13 87.5 0 0 1811.87 557.62   L 1806.13 605.27   A 0.67 0.66 -86.6 0 1 1805.47 605.86   L 1738.54 606.22   A 0.59 0.58 86.7 0 1 1737.96 605.70   L 1737.28 599.97   Z   M 1712.37 341.63   C 1684.69 367.11 1674.80 408.59 1690.78 443.23   Q 1702.42 468.45 1725.57 483.03   Q 1750.08 498.46 1779.02 496.18   Q 1810.61 493.70 1833.21 472.46   Q 1833.28 472.40 1833.34 472.35   C 1861.02 446.86 1870.91 405.39 1854.93 370.74   Q 1843.29 345.53 1820.14 330.95   Q 1795.63 315.52 1766.69 317.80   Q 1735.10 320.28 1712.50 341.51   Q 1712.43 341.58 1712.37 341.63   Z"/>
<path xmlns="http://www.w3.org/2000/svg" fill="#d9fb9e" d="M 2114.11 258.41   L 2133.13 258.50   Q 2133.29 258.56 2133.49 258.76   L 2133.58 277.15   L 2133.84 299.73   A 0.95 0.95 0.0 0 0 2134.79 300.67   L 2171.52 300.67   A 1.07 1.07 0.0 0 1 2172.59 301.73   L 2172.78 338.01   A 0.85 0.85 0.0 0 0 2173.62 338.85   L 2211.06 339.19   Q 2211.33 339.31 2211.54 339.78   L 2211.69 376.95   A 0.48 0.48 0.0 0 0 2212.17 377.43   L 2250.52 377.43   A 0.61 0.61 0.0 0 0 2251.13 376.82   L 2251.09 331.16   L 2250.98 279.91   L 2251.05 221.28   A 0.56 0.56 0.0 0 1 2251.61 220.72   L 2302.30 220.70   L 2345.03 220.56   Q 2345.51 220.49 2345.81 220.71   Q 2346.06 220.90 2346.06 221.42   Q 2346.15 236.31 2346.15 236.77   Q 2345.92 401.14 2345.86 561.75   Q 2345.85 579.71 2345.70 592.84   A 0.36 0.36 0.0 0 1 2345.34 593.20   L 2252.16 593.20   A 0.95 0.95 0.0 0 1 2251.21 592.25   L 2251.21 514.31   A 0.77 0.76 -0.0 0 0 2250.44 513.55   L 2212.29 513.54   Q 2211.74 512.65 2211.74 511.20   L 2211.42 473.90   A 0.45 0.45 0.0 0 0 2210.97 473.45   L 2173.63 473.32   A 0.74 0.74 0.0 0 1 2172.89 472.59   L 2172.70 435.41   A 0.50 0.50 0.0 0 0 2172.20 434.92   L 2133.61 434.92   A 0.69 0.69 0.0 0 1 2132.92 434.23   L 2132.72 397.06   A 0.95 0.95 0.0 0 0 2131.77 396.12   L 2094.29 396.12   A 0.87 0.87 0.0 0 0 2093.42 396.99   L 2092.75 592.70   A 0.58 0.58 0.0 0 1 2092.17 593.28   L 2001.30 592.97   A 0.90 0.89 0.3 0 1 2000.41 592.08   L 2000.36 336.74   L 2000.42 301.71   L 2000.39 235.75   L 2000.44 221.31   A 0.47 0.47 0.0 0 1 2000.91 220.84   L 2027.65 220.91   L 2093.08 220.53   A 0.70 0.69 89.6 0 1 2093.78 221.23   L 2093.66 257.80   A 0.34 0.33 90.0 0 0 2093.99 258.14   L 2114.11 258.41   Z"/>
<path xmlns="http://www.w3.org/2000/svg" fill="#d9fb9e" d="M 164.57 554.31   L 164.32 532.28   L 164.97 258.68   A 0.46 0.46 0.0 0 1 165.43 258.22   L 205.57 258.00   A 0.64 0.64 0.0 0 0 206.21 257.36   L 206.33 221.14   A 0.37 0.37 0.0 0 1 206.70 220.78   L 458.19 220.78   A 0.56 0.55 -0.0 0 1 458.75 221.33   L 458.95 257.93   A 0.39 0.39 0.0 0 0 459.34 258.32   L 498.41 258.46   A 0.43 0.42 0.0 0 1 498.84 258.88   L 498.84 553.72   A 0.61 0.61 0.0 0 1 498.23 554.33   L 459.49 554.20   A 0.72 0.72 0.0 0 0 458.76 554.92   L 458.76 592.73   A 0.50 0.49 -90.0 0 1 458.27 593.23   L 207.00 593.23   A 0.41 0.41 0.0 0 1 206.59 592.82   L 206.59 554.98   A 0.72 0.72 0.0 0 0 205.87 554.26   L 164.57 554.31   Z   M 401.15 308.81   A 0.26 0.26 0.0 0 0 400.89 308.55   L 263.57 308.55   A 0.26 0.26 0.0 0 0 263.31 308.81   L 263.31 505.61   A 0.26 0.26 0.0 0 0 263.57 505.87   L 400.89 505.87   A 0.26 0.26 0.0 0 0 401.15 505.61   L 401.15 308.81   Z"/>
<path xmlns="http://www.w3.org/2000/svg" fill="#d9fb9e" d="M 734.85 545.04   L 734.51 593.47   L 640.26 593.30   A 0.63 0.63 0.0 0 1 639.63 592.67   L 639.63 309.20   A 0.63 0.62 0.0 0 0 639.00 308.58   L 528.94 308.58   A 0.50 0.50 0.0 0 1 528.44 308.08   L 528.44 221.32   A 0.44 0.43 0.0 0 1 528.88 220.89   L 845.99 220.89   A 0.59 0.59 0.0 0 1 846.58 221.48   L 846.58 307.97   A 0.62 0.62 0.0 0 1 845.96 308.59   L 734.96 308.59   A 0.31 0.31 0.0 0 0 734.65 308.90   L 734.85 545.04   Z"/>
<path xmlns="http://www.w3.org/2000/svg" fill="#d9fb9e" d="M 930.03 220.91   L 1167.30 220.87   A 0.61 0.61 0.0 0 1 1167.91 221.48   L 1167.91 257.70   A 0.47 0.47 0.0 0 0 1168.38 258.17   L 1207.44 258.17   A 0.46 0.46 0.0 0 1 1207.90 258.63   Q 1207.70 353.27 1208.03 421.26   Q 1208.18 453.27 1207.98 467.24   C 1207.45 505.61 1208.01 543.99 1208.05 585.52   Q 1208.06 589.28 1207.64 592.57   A 0.66 0.66 0.0 0 1 1206.99 593.14   L 1113.90 592.82   A 0.62 0.61 0.0 0 1 1113.28 592.21   L 1112.54 453.07   A 0.20 0.20 0.0 0 0 1112.34 452.87   L 974.65 452.87   A 0.60 0.60 0.0 0 0 974.05 453.47   L 974.20 560.07   L 974.02 593.03   L 879.99 593.07   A 0.85 0.85 0.0 0 1 879.14 592.21   Q 879.85 425.63 879.23 261.00   Q 879.23 260.31 878.98 258.72   A 0.41 0.41 0.0 0 1 879.38 258.25   L 918.49 258.25   A 0.35 0.35 0.0 0 0 918.84 257.90   L 919.18 234.95   L 919.35 221.30   A 0.40 0.40 0.0 0 1 919.75 220.90   L 930.03 220.91   Z   M 1112.2877 309.1295   A 0.46 0.46 0.0 0 0 1111.8269 308.6703   L 974.5671 308.9098   A 0.46 0.46 0.0 0 0 974.1079 309.3706   L 974.1923 357.7705   A 0.46 0.46 0.0 0 0 974.6531 358.2297   L 1111.9129 357.9902   A 0.46 0.46 0.0 0 0 1112.3721 357.5294   L 1112.2877 309.1295   Z"/>
<path xmlns="http://www.w3.org/2000/svg" fill="#d9fb9e" d="M 1289.54 220.89   L 1562.06 220.85   A 0.68 0.67 -0.0 0 1 1562.74 221.52   L 1562.73 281.25   L 1562.82 307.63   A 0.71 0.70 83.3 0 1 1562.28 308.32   L 1561.46 308.52   L 1341.45 308.80   A 0.62 0.62 0.0 0 0 1340.83 309.42   L 1340.87 400.04   L 1340.78 454.41   L 1340.78 505.26   A 0.61 0.61 0.0 0 0 1341.39 505.87   L 1546.04 505.93   L 1561.77 505.97   A 0.69 0.69 0.0 0 1 1562.43 506.46   Q 1562.76 507.61 1562.57 509.04   L 1562.68 592.62   A 0.45 0.45 0.0 0 1 1562.24 593.07   Q 1462.37 593.59 1365.81 592.92   C 1355.77 592.85 1346.18 593.13 1336.43 593.39   Q 1329.84 593.57 1324.68 593.43   Q 1306.69 592.93 1285.97 592.74   A 0.68 0.68 0.0 0 1 1285.30 592.07   L 1285.10 554.49   A 0.34 0.34 0.0 0 0 1284.76 554.15   L 1245.96 554.15   A 0.83 0.83 0.0 0 1 1245.13 553.32   L 1245.13 258.72   A 0.52 0.52 0.0 0 1 1245.65 258.20   L 1283.91 257.99   A 0.33 0.33 0.0 0 0 1284.24 257.66   L 1284.29 233.47   L 1284.41 221.44   A 0.52 0.52 0.0 0 1 1284.92 220.93   L 1289.54 220.89   Z"/>
<ellipse xmlns="http://www.w3.org/2000/svg" fill="#d9fb9e" cx="0.00" cy="0.00" transform="translate(1772.54,407.30) rotate(-59.4)" rx="47.59" ry="47.36"/>
<path xmlns="http://www.w3.org/2000/svg" fill="#d9fb9e" d="M 206.54 632.30   L 2345.38 632.41   A 0.54 0.54 0.0 0 1 2345.92 632.95   L 2345.92 691.09   A 0.47 0.46 -0.0 0 1 2345.45 691.55   L 164.72 691.51   Q 164.57 691.46 164.42 691.37   A 0.61 0.61 0.0 0 1 164.13 690.85   L 164.13 632.86   A 0.54 0.54 0.0 0 1 164.67 632.32   L 206.54 632.30   Z"/>
</g></g></g></g></svg>
